<svg xmlns="http://www.w3.org/2000/svg" viewBox="0 0 459.86 100.59" class="d-inline-block align-text-top">
  <g>
    <path style="fill: var(--onepayroll-font-color);" d="M269.67,79.55h-13.57l-.84-3.79c-1.4,1.47-2.91,2.63-4.52,3.47-1.61.84-3.58,1.26-5.89,1.26-1.96,0-3.86-.21-5.68-.63-1.82-.42-3.44-1.21-4.84-2.37-1.4-1.16-2.53-2.72-3.37-4.68-.84-1.96-1.26-4.52-1.26-7.68v-2.74c0-2.59.46-4.77,1.37-6.52.91-1.75,2.12-3.16,3.63-4.21,1.51-1.05,3.24-1.8,5.21-2.26,1.96-.46,4.03-.68,6.21-.68,1.89,0,3.54.14,4.94.42,1.4.28,2.73.7,4,1.26v-1.79c0-1.12-.14-2.14-.42-3.05-.28-.91-.84-1.68-1.68-2.31-.84-.63-2.02-1.12-3.52-1.47-1.51-.35-3.46-.53-5.84-.53-1.61,0-3.35.16-5.21.47-1.86.32-3.46.62-4.79.89v-11.78c.77-.21,1.7-.38,2.79-.53,1.09-.14,2.22-.28,3.42-.42,1.19-.14,2.33-.24,3.42-.31,1.09-.07,2.02-.11,2.79-.11,4.91,0,8.89.46,11.94,1.37,3.05.91,5.45,2.24,7.21,4,1.75,1.75,2.95,3.95,3.58,6.57.63,2.63.95,5.63.95,8.99v29.14ZM249.06,69.77c2.03,0,3.56-.6,4.58-1.79,1.02-1.19,1.53-2.42,1.53-3.68v-4.73c-1.26-1.05-2.98-1.58-5.15-1.58-1.96,0-3.52.37-4.68,1.11-1.16.74-1.74,2.23-1.74,4.47v.74c0,1.89.42,3.28,1.26,4.16.84.88,2.24,1.31,4.21,1.31Z"/>
    <path style="fill: var(--onepayroll-font-color);" d="M301.34,100.59h-15.78l5.79-21.67-16.3-48.81h17.36l7.78,30.82,7.36-30.82h16.52l-22.72,70.48Z"/>
    <path style="fill: var(--onepayroll-font-color);" d="M329.42,30.11h14.2l1.16,4.63c1.61-2.03,3.47-3.4,5.57-4.1,2.1-.7,3.96-1.05,5.57-1.05.7,0,1.37.04,2,.11.63.07,1.19.18,1.68.31v13.46c-1.33-.28-2.67-.42-4-.42-3.16,0-5.66.58-7.52,1.74-1.86,1.16-2.79,3.24-2.79,6.26v28.51h-15.88V30.11Z"/>
    <path style="fill: var(--onepayroll-font-color);" d="M387.59,81.02c-3.3,0-6.3-.42-8.99-1.26-2.7-.84-5.01-2.21-6.94-4.1-1.93-1.89-3.42-4.35-4.47-7.36-1.05-3.01-1.58-6.66-1.58-10.94v-4.94c0-4.28.54-7.91,1.63-10.89,1.09-2.98,2.59-5.42,4.52-7.31s4.24-3.26,6.94-4.1c2.7-.84,5.66-1.26,8.89-1.26s6.31.42,9.05,1.26c2.73.84,5.07,2.21,7,4.1,1.93,1.89,3.42,4.33,4.47,7.31,1.05,2.98,1.58,6.61,1.58,10.89v4.94c0,4.28-.53,7.93-1.58,10.94-1.05,3.02-2.52,5.47-4.42,7.36-1.89,1.89-4.21,3.26-6.94,4.1-2.73.84-5.79,1.26-9.15,1.26ZM387.8,41.26c-2.73,0-4.44,1.05-5.1,3.16-.67,2.1-1,5.15-1,9.15v2.73c0,4,.3,7.05.89,9.15.6,2.1,2.26,3.16,5,3.16s4.33-1.05,5-3.16c.67-2.1,1-5.15,1-9.15v-2.73c0-1.96-.05-3.72-.16-5.26-.11-1.54-.33-2.84-.68-3.89-.35-1.05-.93-1.84-1.73-2.37-.81-.53-1.88-.79-3.21-.79Z"/>
    <path style="fill: var(--onepayroll-font-color);"  d="M418.41,9.39h15.88v70.16h-15.88V9.39Z"/>
    <path style="fill: var(--onepayroll-font-color);"  d="M443.98,9.39h15.88v70.16h-15.88V9.39Z"/>
  </g>
  <g>
    <path style="fill: var(--onepayroll-font-color);" d="M26.82,78.87c-4.07,0-7.75-.58-11.05-1.74-3.3-1.16-6.12-3.01-8.47-5.57-2.35-2.56-4.15-5.89-5.42-9.99-1.26-4.1-1.89-9.1-1.89-14.99v-8.52c0-5.89.65-10.89,1.95-14.99,1.3-4.1,3.12-7.43,5.47-9.99,2.35-2.56,5.17-4.42,8.47-5.57,3.3-1.16,6.94-1.74,10.94-1.74s7.75.58,11.04,1.74c3.3,1.16,6.1,3.02,8.42,5.57,2.31,2.56,4.1,5.89,5.36,9.99,1.26,4.1,1.89,9.1,1.89,14.99v8.52c0,5.89-.61,10.89-1.84,14.99-1.23,4.1-3,7.43-5.31,9.99-2.32,2.56-5.12,4.42-8.42,5.57-3.3,1.16-7.01,1.74-11.15,1.74ZM26.93,19.01c-1.89,0-3.42.4-4.58,1.21-1.16.81-2.05,2-2.68,3.58s-1.07,3.56-1.31,5.94c-.25,2.38-.37,5.19-.37,8.42v8.21c0,3.23.12,6.03.37,8.42.24,2.38.68,4.37,1.31,5.94s1.51,2.77,2.63,3.58c1.12.81,2.59,1.21,4.42,1.21s3.42-.4,4.58-1.21c1.16-.81,2.05-2,2.68-3.58.63-1.58,1.05-3.56,1.26-5.94.21-2.38.32-5.19.32-8.42v-8.21c0-6.45-.54-11.26-1.63-14.41-1.09-3.16-3.42-4.73-7-4.73Z"/>
    <path style="fill: var(--onepayroll-font-color);" d="M62.48,27.95h14.2l1.05,4.42c.77-.84,1.54-1.59,2.31-2.26.77-.67,1.61-1.26,2.52-1.79s1.93-.93,3.05-1.21c1.12-.28,2.45-.42,4-.42,2.03,0,3.91.3,5.63.89,1.72.6,3.21,1.54,4.47,2.84,1.26,1.3,2.26,2.98,3,5.05.74,2.07,1.1,4.58,1.1,7.52v34.4h-15.88v-29.24c0-2.45-.32-4.24-.95-5.37-.63-1.12-1.79-1.68-3.47-1.68-1.12,0-2.02.23-2.68.68-.67.46-1.19,1.09-1.58,1.89-.39.81-.63,1.7-.74,2.68-.11.98-.16,2-.16,3.05v27.98h-15.88V27.95Z"/>
    <path style="fill: var(--onepayroll-font-color);" d="M127.39,57.72c.14,3.16,1.33,5.35,3.58,6.57,2.24,1.23,5.43,1.84,9.57,1.84,1.33,0,2.82-.09,4.47-.26,1.65-.17,3.14-.44,4.47-.79v11.89c-.77.21-1.72.39-2.84.53-1.12.14-2.26.26-3.42.37s-2.3.19-3.42.26c-1.12.07-2.07.1-2.84.1-7.85,0-13.88-1.89-18.09-5.68s-6.31-9.57-6.31-17.36v-7.26c0-3.58.54-6.7,1.63-9.36,1.09-2.66,2.58-4.87,4.47-6.63,1.89-1.75,4.14-3.07,6.73-3.95,2.59-.88,5.4-1.31,8.41-1.31,2.53,0,4.94.39,7.26,1.16,2.31.77,4.37,2,6.15,3.68,1.79,1.68,3.21,3.88,4.26,6.57,1.05,2.7,1.58,5.98,1.58,9.84v9.78h-25.67ZM139.27,47.83c0-3.58-.51-5.96-1.53-7.15-1.02-1.19-2.44-1.79-4.26-1.79s-3.31.6-4.47,1.79c-1.16,1.19-1.74,3.58-1.74,7.15h11.99Z"/>
  </g>
  <g>
    <path style="fill: var(--onepayroll-font-color);" d="M185.17,50.87v24.24h-18.43v-25.65c.63-6.73,4.86-12.8,11.07-15.5,6.83-2.97,16.45-.9,23.88-1.52,6.46-.54,9.08-8.47,3.98-12.45-.78-.61-2.69-1.5-3.65-1.5h-13.2V.06c6.96.32,14.27-.93,20.96,1.37,7.4,2.55,13.7,9.1,15.94,16.6,4.72,15.81-6.32,31.48-22.54,32.84h-18.02Z"/>
    <path style="fill: var(--onepayroll-primary-red);" d="M185.34.06v28.64c-.6.47-1.6.19-2.39.27-5.46.57-10.69,3.38-14.3,7.45-.66.74-1.14,1.67-1.91,2.33v-19.84l-.25-.25h-10.54L166.58.06h18.76Z" />
  </g>
</svg>